<?xml version="1.0" encoding="UTF-8" standalone="no"?>
<!DOCTYPE svg PUBLIC "-//W3C//DTD SVG 1.1//EN"
 "http://www.w3.org/Graphics/SVG/1.1/DTD/svg11.dtd">
<!-- Generated by graphviz version 2.38.0 (20140413.2041)
 -->
<!-- Title: Tree Pages: 1 -->
<svg width="1492pt" height="433pt"
 viewBox="0.00 0.00 1492.00 433.00" xmlns="http://www.w3.org/2000/svg" xmlns:xlink="http://www.w3.org/1999/xlink">
<g id="graph0" class="graph" transform="scale(1 1) rotate(0) translate(4 429)">
<title>Tree</title>
<polygon fill="white" stroke="none" points="-4,4 -4,-429 1488,-429 1488,4 -4,4"/>
<!-- 0 -->
<g id="node1" class="node"><title>0</title>
<path fill="#8139e5" fill-opacity="0.172549" stroke="black" d="M823.5,-425C823.5,-425 657.5,-425 657.5,-425 651.5,-425 645.5,-419 645.5,-413 645.5,-413 645.5,-354 645.5,-354 645.5,-348 651.5,-342 657.5,-342 657.5,-342 823.5,-342 823.5,-342 829.5,-342 835.5,-348 835.5,-354 835.5,-354 835.5,-413 835.5,-413 835.5,-419 829.5,-425 823.5,-425"/>
<text text-anchor="start" x="653.5" y="-409.8" font-family="Helvetica,sans-Serif" font-size="14.00">trace:Insurance@PRIV ≤ 0.5</text>
<text text-anchor="start" x="705" y="-394.8" font-family="Helvetica,sans-Serif" font-size="14.00">gini = 0.611</text>
<text text-anchor="start" x="692" y="-379.8" font-family="Helvetica,sans-Serif" font-size="14.00">samples = 1435</text>
<text text-anchor="start" x="671" y="-364.8" font-family="Helvetica,sans-Serif" font-size="14.00">value = [532, 216, 687]</text>
<text text-anchor="start" x="656" y="-349.8" font-family="Helvetica,sans-Serif" font-size="14.00">class = Discharge Init Exam</text>
</g>
<!-- 1 -->
<g id="node2" class="node"><title>1</title>
<path fill="#8139e5" fill-opacity="0.227451" stroke="black" d="M685,-306C685,-306 524,-306 524,-306 518,-306 512,-300 512,-294 512,-294 512,-235 512,-235 512,-229 518,-223 524,-223 524,-223 685,-223 685,-223 691,-223 697,-229 697,-235 697,-235 697,-294 697,-294 697,-300 691,-306 685,-306"/>
<text text-anchor="start" x="554.5" y="-290.8" font-family="Helvetica,sans-Serif" font-size="14.00">trace:Age ≤ 72.5</text>
<text text-anchor="start" x="569" y="-275.8" font-family="Helvetica,sans-Serif" font-size="14.00">gini = 0.608</text>
<text text-anchor="start" x="559.5" y="-260.8" font-family="Helvetica,sans-Serif" font-size="14.00">samples = 989</text>
<text text-anchor="start" x="535" y="-245.8" font-family="Helvetica,sans-Serif" font-size="14.00">value = [346, 152, 491]</text>
<text text-anchor="start" x="520" y="-230.8" font-family="Helvetica,sans-Serif" font-size="14.00">class = Discharge Init Exam</text>
</g>
<!-- 0&#45;&gt;1 -->
<g id="edge1" class="edge"><title>0&#45;&gt;1</title>
<path fill="none" stroke="black" d="M693.315,-341.907C682.345,-332.469 670.574,-322.343 659.306,-312.649"/>
<polygon fill="black" stroke="black" points="661.464,-309.889 651.601,-306.021 656.899,-315.196 661.464,-309.889"/>
<text text-anchor="middle" x="653.473" y="-327.251" font-family="Helvetica,sans-Serif" font-size="14.00">True</text>
</g>
<!-- 8 -->
<g id="node9" class="node"><title>8</title>
<path fill="#8139e5" fill-opacity="0.039216" stroke="black" d="M958,-306C958,-306 797,-306 797,-306 791,-306 785,-300 785,-294 785,-294 785,-235 785,-235 785,-229 791,-223 797,-223 797,-223 958,-223 958,-223 964,-223 970,-229 970,-235 970,-235 970,-294 970,-294 970,-300 964,-306 958,-306"/>
<text text-anchor="start" x="827.5" y="-290.8" font-family="Helvetica,sans-Serif" font-size="14.00">trace:Age ≤ 61.5</text>
<text text-anchor="start" x="842" y="-275.8" font-family="Helvetica,sans-Serif" font-size="14.00">gini = 0.612</text>
<text text-anchor="start" x="832.5" y="-260.8" font-family="Helvetica,sans-Serif" font-size="14.00">samples = 446</text>
<text text-anchor="start" x="812" y="-245.8" font-family="Helvetica,sans-Serif" font-size="14.00">value = [186, 64, 196]</text>
<text text-anchor="start" x="793" y="-230.8" font-family="Helvetica,sans-Serif" font-size="14.00">class = Discharge Init Exam</text>
</g>
<!-- 0&#45;&gt;8 -->
<g id="edge8" class="edge"><title>0&#45;&gt;8</title>
<path fill="none" stroke="black" d="M788.031,-341.907C799.083,-332.469 810.94,-322.343 822.291,-312.649"/>
<polygon fill="black" stroke="black" points="824.721,-315.177 830.053,-306.021 820.175,-309.854 824.721,-315.177"/>
<text text-anchor="middle" x="828.09" y="-327.244" font-family="Helvetica,sans-Serif" font-size="14.00">False</text>
</g>
<!-- 2 -->
<g id="node3" class="node"><title>2</title>
<path fill="#8139e5" fill-opacity="0.239216" stroke="black" d="M376,-187C376,-187 215,-187 215,-187 209,-187 203,-181 203,-175 203,-175 203,-116 203,-116 203,-110 209,-104 215,-104 215,-104 376,-104 376,-104 382,-104 388,-110 388,-116 388,-116 388,-175 388,-175 388,-181 382,-187 376,-187"/>
<text text-anchor="start" x="245.5" y="-171.8" font-family="Helvetica,sans-Serif" font-size="14.00">trace:Age ≤ 39.5</text>
<text text-anchor="start" x="260" y="-156.8" font-family="Helvetica,sans-Serif" font-size="14.00">gini = 0.609</text>
<text text-anchor="start" x="250.5" y="-141.8" font-family="Helvetica,sans-Serif" font-size="14.00">samples = 875</text>
<text text-anchor="start" x="226" y="-126.8" font-family="Helvetica,sans-Serif" font-size="14.00">value = [298, 140, 437]</text>
<text text-anchor="start" x="211" y="-111.8" font-family="Helvetica,sans-Serif" font-size="14.00">class = Discharge Init Exam</text>
</g>
<!-- 1&#45;&gt;2 -->
<g id="edge2" class="edge"><title>1&#45;&gt;2</title>
<path fill="none" stroke="black" d="M511.79,-228.396C475.889,-214.803 434.658,-199.191 397.888,-185.268"/>
<polygon fill="black" stroke="black" points="398.736,-181.847 388.145,-181.579 396.257,-188.393 398.736,-181.847"/>
</g>
<!-- 5 -->
<g id="node6" class="node"><title>5</title>
<path fill="#8139e5" fill-opacity="0.090196" stroke="black" d="M685,-187C685,-187 524,-187 524,-187 518,-187 512,-181 512,-175 512,-175 512,-116 512,-116 512,-110 518,-104 524,-104 524,-104 685,-104 685,-104 691,-104 697,-110 697,-116 697,-116 697,-175 697,-175 697,-181 691,-187 685,-187"/>
<text text-anchor="start" x="554.5" y="-171.8" font-family="Helvetica,sans-Serif" font-size="14.00">trace:Age ≤ 74.5</text>
<text text-anchor="start" x="569" y="-156.8" font-family="Helvetica,sans-Serif" font-size="14.00">gini = 0.587</text>
<text text-anchor="start" x="559.5" y="-141.8" font-family="Helvetica,sans-Serif" font-size="14.00">samples = 114</text>
<text text-anchor="start" x="546.5" y="-126.8" font-family="Helvetica,sans-Serif" font-size="14.00">value = [48, 12, 54]</text>
<text text-anchor="start" x="520" y="-111.8" font-family="Helvetica,sans-Serif" font-size="14.00">class = Discharge Init Exam</text>
</g>
<!-- 1&#45;&gt;5 -->
<g id="edge5" class="edge"><title>1&#45;&gt;5</title>
<path fill="none" stroke="black" d="M604.5,-222.907C604.5,-214.649 604.5,-205.864 604.5,-197.302"/>
<polygon fill="black" stroke="black" points="608,-197.021 604.5,-187.021 601,-197.021 608,-197.021"/>
</g>
<!-- 3 -->
<g id="node4" class="node"><title>3</title>
<path fill="#8139e5" fill-opacity="0.156863" stroke="black" d="M173,-68C173,-68 12,-68 12,-68 6,-68 1.42109e-14,-62 1.42109e-14,-56 1.42109e-14,-56 1.42109e-14,-12 1.42109e-14,-12 1.42109e-14,-6 6,-0 12,-0 12,-0 173,-0 173,-0 179,-0 185,-6 185,-12 185,-12 185,-56 185,-56 185,-62 179,-68 173,-68"/>
<text text-anchor="start" x="57" y="-52.8" font-family="Helvetica,sans-Serif" font-size="14.00">gini = 0.607</text>
<text text-anchor="start" x="47.5" y="-37.8" font-family="Helvetica,sans-Serif" font-size="14.00">samples = 394</text>
<text text-anchor="start" x="27" y="-22.8" font-family="Helvetica,sans-Serif" font-size="14.00">value = [150, 56, 188]</text>
<text text-anchor="start" x="8" y="-7.8" font-family="Helvetica,sans-Serif" font-size="14.00">class = Discharge Init Exam</text>
</g>
<!-- 2&#45;&gt;3 -->
<g id="edge3" class="edge"><title>2&#45;&gt;3</title>
<path fill="none" stroke="black" d="M220.199,-103.882C201.387,-93.7346 181.286,-82.8922 162.731,-72.8832"/>
<polygon fill="black" stroke="black" points="164.221,-69.7104 153.758,-68.0433 160.898,-75.8713 164.221,-69.7104"/>
</g>
<!-- 4 -->
<g id="node5" class="node"><title>4</title>
<path fill="#8139e5" fill-opacity="0.301961" stroke="black" d="M376,-68C376,-68 215,-68 215,-68 209,-68 203,-62 203,-56 203,-56 203,-12 203,-12 203,-6 209,-0 215,-0 215,-0 376,-0 376,-0 382,-0 388,-6 388,-12 388,-12 388,-56 388,-56 388,-62 382,-68 376,-68"/>
<text text-anchor="start" x="260" y="-52.8" font-family="Helvetica,sans-Serif" font-size="14.00">gini = 0.607</text>
<text text-anchor="start" x="250.5" y="-37.8" font-family="Helvetica,sans-Serif" font-size="14.00">samples = 481</text>
<text text-anchor="start" x="230" y="-22.8" font-family="Helvetica,sans-Serif" font-size="14.00">value = [148, 84, 249]</text>
<text text-anchor="start" x="211" y="-7.8" font-family="Helvetica,sans-Serif" font-size="14.00">class = Discharge Init Exam</text>
</g>
<!-- 2&#45;&gt;4 -->
<g id="edge4" class="edge"><title>2&#45;&gt;4</title>
<path fill="none" stroke="black" d="M295.5,-103.726C295.5,-95.5175 295.5,-86.8595 295.5,-78.56"/>
<polygon fill="black" stroke="black" points="299,-78.2996 295.5,-68.2996 292,-78.2996 299,-78.2996"/>
</g>
<!-- 6 -->
<g id="node7" class="node"><title>6</title>
<path fill="#e58139" fill-opacity="0.443137" stroke="black" d="M517.5,-68C517.5,-68 417.5,-68 417.5,-68 411.5,-68 405.5,-62 405.5,-56 405.5,-56 405.5,-12 405.5,-12 405.5,-6 411.5,-0 417.5,-0 417.5,-0 517.5,-0 517.5,-0 523.5,-0 529.5,-6 529.5,-12 529.5,-12 529.5,-56 529.5,-56 529.5,-62 523.5,-68 517.5,-68"/>
<text text-anchor="start" x="432" y="-52.8" font-family="Helvetica,sans-Serif" font-size="14.00">gini = 0.521</text>
<text text-anchor="start" x="426.5" y="-37.8" font-family="Helvetica,sans-Serif" font-size="14.00">samples = 26</text>
<text text-anchor="start" x="417" y="-22.8" font-family="Helvetica,sans-Serif" font-size="14.00">value = [16, 2, 8]</text>
<text text-anchor="start" x="413.5" y="-7.8" font-family="Helvetica,sans-Serif" font-size="14.00">class = Discharge</text>
</g>
<!-- 5&#45;&gt;6 -->
<g id="edge6" class="edge"><title>5&#45;&gt;6</title>
<path fill="none" stroke="black" d="M553.486,-103.726C541.618,-94.2406 529,-84.1551 517.19,-74.7159"/>
<polygon fill="black" stroke="black" points="519.159,-71.8091 509.163,-68.2996 514.789,-77.2771 519.159,-71.8091"/>
</g>
<!-- 7 -->
<g id="node8" class="node"><title>7</title>
<path fill="#8139e5" fill-opacity="0.250980" stroke="black" d="M720,-68C720,-68 559,-68 559,-68 553,-68 547,-62 547,-56 547,-56 547,-12 547,-12 547,-6 553,-0 559,-0 559,-0 720,-0 720,-0 726,-0 732,-6 732,-12 732,-12 732,-56 732,-56 732,-62 726,-68 720,-68"/>
<text text-anchor="start" x="604" y="-52.8" font-family="Helvetica,sans-Serif" font-size="14.00">gini = 0.582</text>
<text text-anchor="start" x="598.5" y="-37.8" font-family="Helvetica,sans-Serif" font-size="14.00">samples = 88</text>
<text text-anchor="start" x="581.5" y="-22.8" font-family="Helvetica,sans-Serif" font-size="14.00">value = [32, 10, 46]</text>
<text text-anchor="start" x="555" y="-7.8" font-family="Helvetica,sans-Serif" font-size="14.00">class = Discharge Init Exam</text>
</g>
<!-- 5&#45;&gt;7 -->
<g id="edge7" class="edge"><title>5&#45;&gt;7</title>
<path fill="none" stroke="black" d="M617.533,-103.726C620.215,-95.3351 623.047,-86.4745 625.753,-78.0072"/>
<polygon fill="black" stroke="black" points="629.145,-78.8905 628.856,-68.2996 622.478,-76.7592 629.145,-78.8905"/>
</g>
<!-- 9 -->
<g id="node10" class="node"><title>9</title>
<path fill="#8139e5" fill-opacity="0.133333" stroke="black" d="M958,-187C958,-187 797,-187 797,-187 791,-187 785,-181 785,-175 785,-175 785,-116 785,-116 785,-110 791,-104 797,-104 797,-104 958,-104 958,-104 964,-104 970,-110 970,-116 970,-116 970,-175 970,-175 970,-181 964,-187 958,-187"/>
<text text-anchor="start" x="827.5" y="-171.8" font-family="Helvetica,sans-Serif" font-size="14.00">trace:Age ≤ 20.5</text>
<text text-anchor="start" x="842" y="-156.8" font-family="Helvetica,sans-Serif" font-size="14.00">gini = 0.618</text>
<text text-anchor="start" x="832.5" y="-141.8" font-family="Helvetica,sans-Serif" font-size="14.00">samples = 338</text>
<text text-anchor="start" x="812" y="-126.8" font-family="Helvetica,sans-Serif" font-size="14.00">value = [128, 54, 156]</text>
<text text-anchor="start" x="793" y="-111.8" font-family="Helvetica,sans-Serif" font-size="14.00">class = Discharge Init Exam</text>
</g>
<!-- 8&#45;&gt;9 -->
<g id="edge9" class="edge"><title>8&#45;&gt;9</title>
<path fill="none" stroke="black" d="M877.5,-222.907C877.5,-214.649 877.5,-205.864 877.5,-197.302"/>
<polygon fill="black" stroke="black" points="881,-197.021 877.5,-187.021 874,-197.021 881,-197.021"/>
</g>
<!-- 12 -->
<g id="node13" class="node"><title>12</title>
<path fill="#e58139" fill-opacity="0.266667" stroke="black" d="M1272.5,-187C1272.5,-187 1164.5,-187 1164.5,-187 1158.5,-187 1152.5,-181 1152.5,-175 1152.5,-175 1152.5,-116 1152.5,-116 1152.5,-110 1158.5,-104 1164.5,-104 1164.5,-104 1272.5,-104 1272.5,-104 1278.5,-104 1284.5,-110 1284.5,-116 1284.5,-116 1284.5,-175 1284.5,-175 1284.5,-181 1278.5,-187 1272.5,-187"/>
<text text-anchor="start" x="1168.5" y="-171.8" font-family="Helvetica,sans-Serif" font-size="14.00">trace:Age ≤ 77.5</text>
<text text-anchor="start" x="1183" y="-156.8" font-family="Helvetica,sans-Serif" font-size="14.00">gini = 0.566</text>
<text text-anchor="start" x="1173.5" y="-141.8" font-family="Helvetica,sans-Serif" font-size="14.00">samples = 108</text>
<text text-anchor="start" x="1160.5" y="-126.8" font-family="Helvetica,sans-Serif" font-size="14.00">value = [58, 10, 40]</text>
<text text-anchor="start" x="1164.5" y="-111.8" font-family="Helvetica,sans-Serif" font-size="14.00">class = Discharge</text>
</g>
<!-- 8&#45;&gt;12 -->
<g id="edge12" class="edge"><title>8&#45;&gt;12</title>
<path fill="none" stroke="black" d="M970.229,-231.684C1024.33,-213.121 1091.73,-189.996 1142.64,-172.527"/>
<polygon fill="black" stroke="black" points="1143.95,-175.778 1152.27,-169.222 1141.68,-169.157 1143.95,-175.778"/>
</g>
<!-- 10 -->
<g id="node11" class="node"><title>10</title>
<path fill="#8139e5" fill-opacity="0.400000" stroke="black" d="M923,-68C923,-68 762,-68 762,-68 756,-68 750,-62 750,-56 750,-56 750,-12 750,-12 750,-6 756,-0 762,-0 762,-0 923,-0 923,-0 929,-0 935,-6 935,-12 935,-12 935,-56 935,-56 935,-62 929,-68 923,-68"/>
<text text-anchor="start" x="807" y="-52.8" font-family="Helvetica,sans-Serif" font-size="14.00">gini = 0.595</text>
<text text-anchor="start" x="801.5" y="-37.8" font-family="Helvetica,sans-Serif" font-size="14.00">samples = 60</text>
<text text-anchor="start" x="784.5" y="-22.8" font-family="Helvetica,sans-Serif" font-size="14.00">value = [15, 12, 33]</text>
<text text-anchor="start" x="758" y="-7.8" font-family="Helvetica,sans-Serif" font-size="14.00">class = Discharge Init Exam</text>
</g>
<!-- 9&#45;&gt;10 -->
<g id="edge10" class="edge"><title>9&#45;&gt;10</title>
<path fill="none" stroke="black" d="M864.467,-103.726C861.785,-95.3351 858.953,-86.4745 856.247,-78.0072"/>
<polygon fill="black" stroke="black" points="859.522,-76.7592 853.144,-68.2996 852.855,-78.8905 859.522,-76.7592"/>
</g>
<!-- 11 -->
<g id="node12" class="node"><title>11</title>
<path fill="#8139e5" fill-opacity="0.058824" stroke="black" d="M1126,-68C1126,-68 965,-68 965,-68 959,-68 953,-62 953,-56 953,-56 953,-12 953,-12 953,-6 959,-0 965,-0 965,-0 1126,-0 1126,-0 1132,-0 1138,-6 1138,-12 1138,-12 1138,-56 1138,-56 1138,-62 1132,-68 1126,-68"/>
<text text-anchor="start" x="1010" y="-52.8" font-family="Helvetica,sans-Serif" font-size="14.00">gini = 0.616</text>
<text text-anchor="start" x="1000.5" y="-37.8" font-family="Helvetica,sans-Serif" font-size="14.00">samples = 278</text>
<text text-anchor="start" x="980" y="-22.8" font-family="Helvetica,sans-Serif" font-size="14.00">value = [113, 42, 123]</text>
<text text-anchor="start" x="961" y="-7.8" font-family="Helvetica,sans-Serif" font-size="14.00">class = Discharge Init Exam</text>
</g>
<!-- 9&#45;&gt;11 -->
<g id="edge11" class="edge"><title>9&#45;&gt;11</title>
<path fill="none" stroke="black" d="M940.057,-103.726C955.108,-93.9161 971.144,-83.4644 986.049,-73.7496"/>
<polygon fill="black" stroke="black" points="988.211,-76.5178 994.678,-68.1252 984.389,-70.6535 988.211,-76.5178"/>
</g>
<!-- 13 -->
<g id="node14" class="node"><title>13</title>
<path fill="#e58139" fill-opacity="0.360784" stroke="black" d="M1269,-68C1269,-68 1168,-68 1168,-68 1162,-68 1156,-62 1156,-56 1156,-56 1156,-12 1156,-12 1156,-6 1162,-0 1168,-0 1168,-0 1269,-0 1269,-0 1275,-0 1281,-6 1281,-12 1281,-12 1281,-56 1281,-56 1281,-62 1275,-68 1269,-68"/>
<text text-anchor="start" x="1183" y="-52.8" font-family="Helvetica,sans-Serif" font-size="14.00">gini = 0.533</text>
<text text-anchor="start" x="1177.5" y="-37.8" font-family="Helvetica,sans-Serif" font-size="14.00">samples = 89</text>
<text text-anchor="start" x="1164" y="-22.8" font-family="Helvetica,sans-Serif" font-size="14.00">value = [52, 6, 31]</text>
<text text-anchor="start" x="1164.5" y="-7.8" font-family="Helvetica,sans-Serif" font-size="14.00">class = Discharge</text>
</g>
<!-- 12&#45;&gt;13 -->
<g id="edge13" class="edge"><title>12&#45;&gt;13</title>
<path fill="none" stroke="black" d="M1218.5,-103.726C1218.5,-95.5175 1218.5,-86.8595 1218.5,-78.56"/>
<polygon fill="black" stroke="black" points="1222,-78.2996 1218.5,-68.2996 1215,-78.2996 1222,-78.2996"/>
</g>
<!-- 14 -->
<g id="node15" class="node"><title>14</title>
<path fill="#8139e5" fill-opacity="0.231373" stroke="black" d="M1472,-68C1472,-68 1311,-68 1311,-68 1305,-68 1299,-62 1299,-56 1299,-56 1299,-12 1299,-12 1299,-6 1305,-0 1311,-0 1311,-0 1472,-0 1472,-0 1478,-0 1484,-6 1484,-12 1484,-12 1484,-56 1484,-56 1484,-62 1478,-68 1472,-68"/>
<text text-anchor="start" x="1356" y="-52.8" font-family="Helvetica,sans-Serif" font-size="14.00">gini = 0.632</text>
<text text-anchor="start" x="1350.5" y="-37.8" font-family="Helvetica,sans-Serif" font-size="14.00">samples = 19</text>
<text text-anchor="start" x="1344.5" y="-22.8" font-family="Helvetica,sans-Serif" font-size="14.00">value = [6, 4, 9]</text>
<text text-anchor="start" x="1307" y="-7.8" font-family="Helvetica,sans-Serif" font-size="14.00">class = Discharge Init Exam</text>
</g>
<!-- 12&#45;&gt;14 -->
<g id="edge14" class="edge"><title>12&#45;&gt;14</title>
<path fill="none" stroke="black" d="M1282.92,-103.726C1298.56,-93.8245 1315.24,-83.269 1330.71,-73.4774"/>
<polygon fill="black" stroke="black" points="1332.59,-76.4308 1339.17,-68.1252 1328.84,-70.5161 1332.59,-76.4308"/>
</g>
</g>
</svg>
