<?xml version="1.0" encoding="UTF-8" standalone="no"?>
<!DOCTYPE svg PUBLIC "-//W3C//DTD SVG 1.1//EN"
 "http://www.w3.org/Graphics/SVG/1.1/DTD/svg11.dtd">
<!-- Generated by graphviz version 2.38.0 (20140413.2041)
 -->
<!-- Title: Tree Pages: 1 -->
<svg width="1370pt" height="433pt"
 viewBox="0.00 0.00 1370.00 433.00" xmlns="http://www.w3.org/2000/svg" xmlns:xlink="http://www.w3.org/1999/xlink">
<g id="graph0" class="graph" transform="scale(1 1) rotate(0) translate(4 429)">
<title>Tree</title>
<polygon fill="white" stroke="none" points="-4,4 -4,-429 1366,-429 1366,4 -4,4"/>
<!-- 0 -->
<g id="node1" class="node"><title>0</title>
<path fill="#8139e5" fill-opacity="0.172549" stroke="black" d="M750,-425C750,-425 581,-425 581,-425 575,-425 569,-419 569,-413 569,-413 569,-354 569,-354 569,-348 575,-342 581,-342 581,-342 750,-342 750,-342 756,-342 762,-348 762,-354 762,-354 762,-413 762,-413 762,-419 756,-425 750,-425"/>
<text text-anchor="start" x="577" y="-409.8" font-family="Helvetica,sans-Serif" font-size="14.00">trace:Insurance@STAT ≤ 0.5</text>
<text text-anchor="start" x="630" y="-394.8" font-family="Helvetica,sans-Serif" font-size="14.00">gini = 0.611</text>
<text text-anchor="start" x="617" y="-379.8" font-family="Helvetica,sans-Serif" font-size="14.00">samples = 1435</text>
<text text-anchor="start" x="596" y="-364.8" font-family="Helvetica,sans-Serif" font-size="14.00">value = [532, 216, 687]</text>
<text text-anchor="start" x="581" y="-349.8" font-family="Helvetica,sans-Serif" font-size="14.00">class = Discharge Init Exam</text>
</g>
<!-- 1 -->
<g id="node2" class="node"><title>1</title>
<path fill="#8139e5" fill-opacity="0.039216" stroke="black" d="M616,-306C616,-306 455,-306 455,-306 449,-306 443,-300 443,-294 443,-294 443,-235 443,-235 443,-229 449,-223 455,-223 455,-223 616,-223 616,-223 622,-223 628,-229 628,-235 628,-235 628,-294 628,-294 628,-300 622,-306 616,-306"/>
<text text-anchor="start" x="485.5" y="-290.8" font-family="Helvetica,sans-Serif" font-size="14.00">trace:Age ≤ 61.5</text>
<text text-anchor="start" x="500" y="-275.8" font-family="Helvetica,sans-Serif" font-size="14.00">gini = 0.612</text>
<text text-anchor="start" x="490.5" y="-260.8" font-family="Helvetica,sans-Serif" font-size="14.00">samples = 446</text>
<text text-anchor="start" x="470" y="-245.8" font-family="Helvetica,sans-Serif" font-size="14.00">value = [186, 64, 196]</text>
<text text-anchor="start" x="451" y="-230.8" font-family="Helvetica,sans-Serif" font-size="14.00">class = Discharge Init Exam</text>
</g>
<!-- 0&#45;&gt;1 -->
<g id="edge1" class="edge"><title>0&#45;&gt;1</title>
<path fill="none" stroke="black" d="M620.397,-341.907C610.011,-332.56 598.875,-322.538 588.199,-312.929"/>
<polygon fill="black" stroke="black" points="590.297,-310.109 580.523,-306.021 585.615,-315.312 590.297,-310.109"/>
<text text-anchor="middle" x="581.837" y="-327.286" font-family="Helvetica,sans-Serif" font-size="14.00">True</text>
</g>
<!-- 8 -->
<g id="node9" class="node"><title>8</title>
<path fill="#8139e5" fill-opacity="0.227451" stroke="black" d="M876,-306C876,-306 715,-306 715,-306 709,-306 703,-300 703,-294 703,-294 703,-235 703,-235 703,-229 709,-223 715,-223 715,-223 876,-223 876,-223 882,-223 888,-229 888,-235 888,-235 888,-294 888,-294 888,-300 882,-306 876,-306"/>
<text text-anchor="start" x="745.5" y="-290.8" font-family="Helvetica,sans-Serif" font-size="14.00">trace:Age ≤ 72.5</text>
<text text-anchor="start" x="760" y="-275.8" font-family="Helvetica,sans-Serif" font-size="14.00">gini = 0.608</text>
<text text-anchor="start" x="750.5" y="-260.8" font-family="Helvetica,sans-Serif" font-size="14.00">samples = 989</text>
<text text-anchor="start" x="726" y="-245.8" font-family="Helvetica,sans-Serif" font-size="14.00">value = [346, 152, 491]</text>
<text text-anchor="start" x="711" y="-230.8" font-family="Helvetica,sans-Serif" font-size="14.00">class = Discharge Init Exam</text>
</g>
<!-- 0&#45;&gt;8 -->
<g id="edge8" class="edge"><title>0&#45;&gt;8</title>
<path fill="none" stroke="black" d="M710.603,-341.907C720.989,-332.56 732.125,-322.538 742.801,-312.929"/>
<polygon fill="black" stroke="black" points="745.385,-315.312 750.477,-306.021 740.703,-310.109 745.385,-315.312"/>
<text text-anchor="middle" x="749.163" y="-327.286" font-family="Helvetica,sans-Serif" font-size="14.00">False</text>
</g>
<!-- 2 -->
<g id="node3" class="node"><title>2</title>
<path fill="#8139e5" fill-opacity="0.133333" stroke="black" d="M316,-187C316,-187 155,-187 155,-187 149,-187 143,-181 143,-175 143,-175 143,-116 143,-116 143,-110 149,-104 155,-104 155,-104 316,-104 316,-104 322,-104 328,-110 328,-116 328,-116 328,-175 328,-175 328,-181 322,-187 316,-187"/>
<text text-anchor="start" x="155" y="-171.8" font-family="Helvetica,sans-Serif" font-size="14.00">event:num_patients ≤ 24.0</text>
<text text-anchor="start" x="200" y="-156.8" font-family="Helvetica,sans-Serif" font-size="14.00">gini = 0.618</text>
<text text-anchor="start" x="190.5" y="-141.8" font-family="Helvetica,sans-Serif" font-size="14.00">samples = 338</text>
<text text-anchor="start" x="170" y="-126.8" font-family="Helvetica,sans-Serif" font-size="14.00">value = [128, 54, 156]</text>
<text text-anchor="start" x="151" y="-111.8" font-family="Helvetica,sans-Serif" font-size="14.00">class = Discharge Init Exam</text>
</g>
<!-- 1&#45;&gt;2 -->
<g id="edge2" class="edge"><title>1&#45;&gt;2</title>
<path fill="none" stroke="black" d="M442.633,-227.282C409.365,-214.307 371.689,-199.614 337.676,-186.349"/>
<polygon fill="black" stroke="black" points="338.775,-183.021 328.187,-182.648 336.232,-189.542 338.775,-183.021"/>
</g>
<!-- 5 -->
<g id="node6" class="node"><title>5</title>
<path fill="#e58139" fill-opacity="0.266667" stroke="black" d="M612,-187C612,-187 459,-187 459,-187 453,-187 447,-181 447,-175 447,-175 447,-116 447,-116 447,-110 453,-104 459,-104 459,-104 612,-104 612,-104 618,-104 624,-110 624,-116 624,-116 624,-175 624,-175 624,-181 618,-187 612,-187"/>
<text text-anchor="start" x="455" y="-171.8" font-family="Helvetica,sans-Serif" font-size="14.00">event:num_patients ≤ 24.0</text>
<text text-anchor="start" x="500" y="-156.8" font-family="Helvetica,sans-Serif" font-size="14.00">gini = 0.566</text>
<text text-anchor="start" x="490.5" y="-141.8" font-family="Helvetica,sans-Serif" font-size="14.00">samples = 108</text>
<text text-anchor="start" x="477.5" y="-126.8" font-family="Helvetica,sans-Serif" font-size="14.00">value = [58, 10, 40]</text>
<text text-anchor="start" x="481.5" y="-111.8" font-family="Helvetica,sans-Serif" font-size="14.00">class = Discharge</text>
</g>
<!-- 1&#45;&gt;5 -->
<g id="edge5" class="edge"><title>1&#45;&gt;5</title>
<path fill="none" stroke="black" d="M535.5,-222.907C535.5,-214.649 535.5,-205.864 535.5,-197.302"/>
<polygon fill="black" stroke="black" points="539,-197.021 535.5,-187.021 532,-197.021 539,-197.021"/>
</g>
<!-- 3 -->
<g id="node4" class="node"><title>3</title>
<path fill="#e58139" stroke="black" d="M113,-68C113,-68 12,-68 12,-68 6,-68 7.10543e-15,-62 7.10543e-15,-56 7.10543e-15,-56 7.10543e-15,-12 7.10543e-15,-12 7.10543e-15,-6 6,-0 12,-0 12,-0 113,-0 113,-0 119,-0 125,-6 125,-12 125,-12 125,-56 125,-56 125,-62 119,-68 113,-68"/>
<text text-anchor="start" x="34.5" y="-52.8" font-family="Helvetica,sans-Serif" font-size="14.00">gini = 0.0</text>
<text text-anchor="start" x="17.5" y="-37.8" font-family="Helvetica,sans-Serif" font-size="14.00">samples = 128</text>
<text text-anchor="start" x="8" y="-22.8" font-family="Helvetica,sans-Serif" font-size="14.00">value = [128, 0, 0]</text>
<text text-anchor="start" x="8.5" y="-7.8" font-family="Helvetica,sans-Serif" font-size="14.00">class = Discharge</text>
</g>
<!-- 2&#45;&gt;3 -->
<g id="edge3" class="edge"><title>2&#45;&gt;3</title>
<path fill="none" stroke="black" d="M171.081,-103.726C155.437,-93.8245 138.761,-83.269 123.291,-73.4774"/>
<polygon fill="black" stroke="black" points="125.156,-70.5161 114.835,-68.1252 121.413,-76.4308 125.156,-70.5161"/>
</g>
<!-- 4 -->
<g id="node5" class="node"><title>4</title>
<path fill="#8139e5" fill-opacity="0.654902" stroke="black" d="M316,-68C316,-68 155,-68 155,-68 149,-68 143,-62 143,-56 143,-56 143,-12 143,-12 143,-6 149,-0 155,-0 155,-0 316,-0 316,-0 322,-0 328,-6 328,-12 328,-12 328,-56 328,-56 328,-62 322,-68 316,-68"/>
<text text-anchor="start" x="200" y="-52.8" font-family="Helvetica,sans-Serif" font-size="14.00">gini = 0.382</text>
<text text-anchor="start" x="190.5" y="-37.8" font-family="Helvetica,sans-Serif" font-size="14.00">samples = 210</text>
<text text-anchor="start" x="177.5" y="-22.8" font-family="Helvetica,sans-Serif" font-size="14.00">value = [0, 54, 156]</text>
<text text-anchor="start" x="151" y="-7.8" font-family="Helvetica,sans-Serif" font-size="14.00">class = Discharge Init Exam</text>
</g>
<!-- 2&#45;&gt;4 -->
<g id="edge4" class="edge"><title>2&#45;&gt;4</title>
<path fill="none" stroke="black" d="M235.5,-103.726C235.5,-95.5175 235.5,-86.8595 235.5,-78.56"/>
<polygon fill="black" stroke="black" points="239,-78.2996 235.5,-68.2996 232,-78.2996 239,-78.2996"/>
</g>
<!-- 6 -->
<g id="node7" class="node"><title>6</title>
<path fill="#e58139" stroke="black" d="M457.5,-68C457.5,-68 357.5,-68 357.5,-68 351.5,-68 345.5,-62 345.5,-56 345.5,-56 345.5,-12 345.5,-12 345.5,-6 351.5,-0 357.5,-0 357.5,-0 457.5,-0 457.5,-0 463.5,-0 469.5,-6 469.5,-12 469.5,-12 469.5,-56 469.5,-56 469.5,-62 463.5,-68 457.5,-68"/>
<text text-anchor="start" x="379.5" y="-52.8" font-family="Helvetica,sans-Serif" font-size="14.00">gini = 0.0</text>
<text text-anchor="start" x="366.5" y="-37.8" font-family="Helvetica,sans-Serif" font-size="14.00">samples = 58</text>
<text text-anchor="start" x="357" y="-22.8" font-family="Helvetica,sans-Serif" font-size="14.00">value = [58, 0, 0]</text>
<text text-anchor="start" x="353.5" y="-7.8" font-family="Helvetica,sans-Serif" font-size="14.00">class = Discharge</text>
</g>
<!-- 5&#45;&gt;6 -->
<g id="edge6" class="edge"><title>5&#45;&gt;6</title>
<path fill="none" stroke="black" d="M487.838,-103.726C476.856,-94.3318 465.186,-84.349 454.244,-74.9883"/>
<polygon fill="black" stroke="black" points="456.3,-72.1406 446.426,-68.2996 451.749,-77.4598 456.3,-72.1406"/>
</g>
<!-- 7 -->
<g id="node8" class="node"><title>7</title>
<path fill="#8139e5" fill-opacity="0.749020" stroke="black" d="M660,-68C660,-68 499,-68 499,-68 493,-68 487,-62 487,-56 487,-56 487,-12 487,-12 487,-6 493,-0 499,-0 499,-0 660,-0 660,-0 666,-0 672,-6 672,-12 672,-12 672,-56 672,-56 672,-62 666,-68 660,-68"/>
<text text-anchor="start" x="547.5" y="-52.8" font-family="Helvetica,sans-Serif" font-size="14.00">gini = 0.32</text>
<text text-anchor="start" x="538.5" y="-37.8" font-family="Helvetica,sans-Serif" font-size="14.00">samples = 50</text>
<text text-anchor="start" x="525" y="-22.8" font-family="Helvetica,sans-Serif" font-size="14.00">value = [0, 10, 40]</text>
<text text-anchor="start" x="495" y="-7.8" font-family="Helvetica,sans-Serif" font-size="14.00">class = Discharge Init Exam</text>
</g>
<!-- 5&#45;&gt;7 -->
<g id="edge7" class="edge"><title>5&#45;&gt;7</title>
<path fill="none" stroke="black" d="M551.884,-103.726C555.292,-95.2439 558.894,-86.2819 562.329,-77.7312"/>
<polygon fill="black" stroke="black" points="565.638,-78.8835 566.119,-68.2996 559.143,-76.2735 565.638,-78.8835"/>
</g>
<!-- 9 -->
<g id="node10" class="node"><title>9</title>
<path fill="#8139e5" fill-opacity="0.239216" stroke="black" d="M876,-187C876,-187 715,-187 715,-187 709,-187 703,-181 703,-175 703,-175 703,-116 703,-116 703,-110 709,-104 715,-104 715,-104 876,-104 876,-104 882,-104 888,-110 888,-116 888,-116 888,-175 888,-175 888,-181 882,-187 876,-187"/>
<text text-anchor="start" x="715" y="-171.8" font-family="Helvetica,sans-Serif" font-size="14.00">event:num_patients ≤ 24.0</text>
<text text-anchor="start" x="760" y="-156.8" font-family="Helvetica,sans-Serif" font-size="14.00">gini = 0.609</text>
<text text-anchor="start" x="750.5" y="-141.8" font-family="Helvetica,sans-Serif" font-size="14.00">samples = 875</text>
<text text-anchor="start" x="726" y="-126.8" font-family="Helvetica,sans-Serif" font-size="14.00">value = [298, 140, 437]</text>
<text text-anchor="start" x="711" y="-111.8" font-family="Helvetica,sans-Serif" font-size="14.00">class = Discharge Init Exam</text>
</g>
<!-- 8&#45;&gt;9 -->
<g id="edge9" class="edge"><title>8&#45;&gt;9</title>
<path fill="none" stroke="black" d="M795.5,-222.907C795.5,-214.649 795.5,-205.864 795.5,-197.302"/>
<polygon fill="black" stroke="black" points="799,-197.021 795.5,-187.021 792,-197.021 799,-197.021"/>
</g>
<!-- 12 -->
<g id="node13" class="node"><title>12</title>
<path fill="#8139e5" fill-opacity="0.090196" stroke="black" d="M1178,-187C1178,-187 1017,-187 1017,-187 1011,-187 1005,-181 1005,-175 1005,-175 1005,-116 1005,-116 1005,-110 1011,-104 1017,-104 1017,-104 1178,-104 1178,-104 1184,-104 1190,-110 1190,-116 1190,-116 1190,-175 1190,-175 1190,-181 1184,-187 1178,-187"/>
<text text-anchor="start" x="1047.5" y="-171.8" font-family="Helvetica,sans-Serif" font-size="14.00">trace:Age ≤ 74.5</text>
<text text-anchor="start" x="1062" y="-156.8" font-family="Helvetica,sans-Serif" font-size="14.00">gini = 0.587</text>
<text text-anchor="start" x="1052.5" y="-141.8" font-family="Helvetica,sans-Serif" font-size="14.00">samples = 114</text>
<text text-anchor="start" x="1039.5" y="-126.8" font-family="Helvetica,sans-Serif" font-size="14.00">value = [48, 12, 54]</text>
<text text-anchor="start" x="1013" y="-111.8" font-family="Helvetica,sans-Serif" font-size="14.00">class = Discharge Init Exam</text>
</g>
<!-- 8&#45;&gt;12 -->
<g id="edge12" class="edge"><title>8&#45;&gt;12</title>
<path fill="none" stroke="black" d="M888.162,-227.601C921.999,-214.492 960.455,-199.594 995.092,-186.175"/>
<polygon fill="black" stroke="black" points="996.693,-189.308 1004.75,-182.432 994.164,-182.781 996.693,-189.308"/>
</g>
<!-- 10 -->
<g id="node11" class="node"><title>10</title>
<path fill="#e58139" stroke="black" d="M803,-68C803,-68 702,-68 702,-68 696,-68 690,-62 690,-56 690,-56 690,-12 690,-12 690,-6 696,-0 702,-0 702,-0 803,-0 803,-0 809,-0 815,-6 815,-12 815,-12 815,-56 815,-56 815,-62 809,-68 803,-68"/>
<text text-anchor="start" x="724.5" y="-52.8" font-family="Helvetica,sans-Serif" font-size="14.00">gini = 0.0</text>
<text text-anchor="start" x="707.5" y="-37.8" font-family="Helvetica,sans-Serif" font-size="14.00">samples = 298</text>
<text text-anchor="start" x="698" y="-22.8" font-family="Helvetica,sans-Serif" font-size="14.00">value = [298, 0, 0]</text>
<text text-anchor="start" x="698.5" y="-7.8" font-family="Helvetica,sans-Serif" font-size="14.00">class = Discharge</text>
</g>
<!-- 9&#45;&gt;10 -->
<g id="edge10" class="edge"><title>9&#45;&gt;10</title>
<path fill="none" stroke="black" d="M779.488,-103.726C776.157,-95.2439 772.638,-86.2819 769.28,-77.7312"/>
<polygon fill="black" stroke="black" points="772.49,-76.3283 765.577,-68.2996 765.974,-78.887 772.49,-76.3283"/>
</g>
<!-- 11 -->
<g id="node12" class="node"><title>11</title>
<path fill="#8139e5" fill-opacity="0.678431" stroke="black" d="M1006,-68C1006,-68 845,-68 845,-68 839,-68 833,-62 833,-56 833,-56 833,-12 833,-12 833,-6 839,-0 845,-0 845,-0 1006,-0 1006,-0 1012,-0 1018,-6 1018,-12 1018,-12 1018,-56 1018,-56 1018,-62 1012,-68 1006,-68"/>
<text text-anchor="start" x="890" y="-52.8" font-family="Helvetica,sans-Serif" font-size="14.00">gini = 0.368</text>
<text text-anchor="start" x="880.5" y="-37.8" font-family="Helvetica,sans-Serif" font-size="14.00">samples = 577</text>
<text text-anchor="start" x="863.5" y="-22.8" font-family="Helvetica,sans-Serif" font-size="14.00">value = [0, 140, 437]</text>
<text text-anchor="start" x="841" y="-7.8" font-family="Helvetica,sans-Serif" font-size="14.00">class = Discharge Init Exam</text>
</g>
<!-- 9&#45;&gt;11 -->
<g id="edge11" class="edge"><title>9&#45;&gt;11</title>
<path fill="none" stroke="black" d="M843.907,-103.726C855.06,-94.3318 866.912,-84.349 878.025,-74.9883"/>
<polygon fill="black" stroke="black" points="880.573,-77.4188 885.966,-68.2996 876.063,-72.065 880.573,-77.4188"/>
</g>
<!-- 13 -->
<g id="node14" class="node"><title>13</title>
<path fill="#e58139" fill-opacity="0.443137" stroke="black" d="M1147.5,-68C1147.5,-68 1047.5,-68 1047.5,-68 1041.5,-68 1035.5,-62 1035.5,-56 1035.5,-56 1035.5,-12 1035.5,-12 1035.5,-6 1041.5,-0 1047.5,-0 1047.5,-0 1147.5,-0 1147.5,-0 1153.5,-0 1159.5,-6 1159.5,-12 1159.5,-12 1159.5,-56 1159.5,-56 1159.5,-62 1153.5,-68 1147.5,-68"/>
<text text-anchor="start" x="1062" y="-52.8" font-family="Helvetica,sans-Serif" font-size="14.00">gini = 0.521</text>
<text text-anchor="start" x="1056.5" y="-37.8" font-family="Helvetica,sans-Serif" font-size="14.00">samples = 26</text>
<text text-anchor="start" x="1047" y="-22.8" font-family="Helvetica,sans-Serif" font-size="14.00">value = [16, 2, 8]</text>
<text text-anchor="start" x="1043.5" y="-7.8" font-family="Helvetica,sans-Serif" font-size="14.00">class = Discharge</text>
</g>
<!-- 12&#45;&gt;13 -->
<g id="edge13" class="edge"><title>12&#45;&gt;13</title>
<path fill="none" stroke="black" d="M1097.5,-103.726C1097.5,-95.5175 1097.5,-86.8595 1097.5,-78.56"/>
<polygon fill="black" stroke="black" points="1101,-78.2996 1097.5,-68.2996 1094,-78.2996 1101,-78.2996"/>
</g>
<!-- 14 -->
<g id="node15" class="node"><title>14</title>
<path fill="#8139e5" fill-opacity="0.250980" stroke="black" d="M1350,-68C1350,-68 1189,-68 1189,-68 1183,-68 1177,-62 1177,-56 1177,-56 1177,-12 1177,-12 1177,-6 1183,-0 1189,-0 1189,-0 1350,-0 1350,-0 1356,-0 1362,-6 1362,-12 1362,-12 1362,-56 1362,-56 1362,-62 1356,-68 1350,-68"/>
<text text-anchor="start" x="1234" y="-52.8" font-family="Helvetica,sans-Serif" font-size="14.00">gini = 0.582</text>
<text text-anchor="start" x="1228.5" y="-37.8" font-family="Helvetica,sans-Serif" font-size="14.00">samples = 88</text>
<text text-anchor="start" x="1211.5" y="-22.8" font-family="Helvetica,sans-Serif" font-size="14.00">value = [32, 10, 46]</text>
<text text-anchor="start" x="1185" y="-7.8" font-family="Helvetica,sans-Serif" font-size="14.00">class = Discharge Init Exam</text>
</g>
<!-- 12&#45;&gt;14 -->
<g id="edge14" class="edge"><title>12&#45;&gt;14</title>
<path fill="none" stroke="black" d="M1161.55,-103.726C1176.96,-93.9161 1193.37,-83.4644 1208.63,-73.7496"/>
<polygon fill="black" stroke="black" points="1210.91,-76.4481 1217.47,-68.1252 1207.15,-70.5431 1210.91,-76.4481"/>
</g>
</g>
</svg>
